<?xml version="1.0" encoding="UTF-8"?>
<svg id="app" xmlns="http://www.w3.org/2000/svg" version="1.1" viewBox="0 0 213 213">
  <path d="M151.44,133.42l-32.86,15.81c-.54.26-.55,1.04,0,1.3,3.09,1.46,11.34,4.4,20.68-.09,9.32-4.48,12.33-12.83,13.2-16.19.15-.59-.46-1.08-1.01-.82h-.01Z"/>
  <path d="M206.47,198.19l-.3-156.04c0-.68-.36-1.3-.95-1.64s-1.31-.34-1.9,0c-.16.09-16.17,9.14-26.25,11.42-8.44,1.91-22.81,4.2-27.82,4.97-.18-1.49-.3-2.46-.33-2.74-.03-.25-.1-.48-.21-.69,2.28-3.15,10.77-8.11,13.82-10.65,3.59-3,6.13-16.89,6.66-18.4.52-1.52-.12-17.45-.26-19.05-.14-1.6-2.84-4.6-7.68-2.48-4.85,2.12-17.11,8.23-20.16,9.7-3.07,1.48-6.87,15.36-7.96,17.86-1.09,2.52-1.41,4.25-4.42,4.96-1.46.35-2.91.55-4.14.63-.22-.26-.42-.51-.64-.79h0c-.19-.21-.42-.4-.68-.63-.23-.19-.66-.55-1.09-.92,3.13-3.67,10.79-12.91,12.64-16.38,2.2-4.16,1.45-8.88.82-11.31-.51-2.03-4.11-4.64-5.9-5.47-.47-.22-1.88-.88-3.11-.28-2.48,1.17-2.23,8.09-2.05,10.66-2.35,2.13-14.75,8.95-17.94,10.57-.67-.24-2.03-.97-3.07-1.52-3.92-2.1-8.37-4.47-11.48-3.1-3.1,1.35-9.81,4.67-12.56,6.03-.14.07-.09.02-.17.09h0c-.06.03-.1.05-.19.09-1.97.92-13.45,6.34-16.77,8.07-3.01,1.59-3.93,6.54-4.74,10.9-.22,1.16-.5,2.69-.73,3.36-3.32,1.5-16.33,6.91-19.46,7.42-1.89-1.75-7.12-6.27-9.6-5.07-1.12.54-1.53,1.77-1.73,2.64-.46,1.91-.66,6.35.59,7.98,1.52,2.03,4.76,5.56,9.36,6.43,3.79.71,15.64.59,20.65.39v1.35c0,.21.03.42.1.61.06.26.17.71.31,1.28-.85.93-1.92,1.96-3.13,2.9-2.43,1.91-3.99,1.08-6.63.36-2.64-.71-15.86-6.41-18.93-4.93-3.06,1.47-15.48,7.24-20.16,9.7-4.68,2.46-4.02,6.44-2.85,7.55,1.16,1.11,13.21,11.56,14.72,12.1,1.51.53,13.95,7.21,18.53,6.28,3.87-.8,13.08-4.22,17.01-4.03.09.18.2.34.35.49,1.97,1.93,49.47,50.66,49.95,51.15.14.14.29.24.46.33,3.63,3.14,19.66,16.98,35.84,30.69,37.52,31.79,39.12,31.84,40.27,31.88,2.13.08,10.16.09,15.93.09h6.18c.51,0,.99-.2,1.35-.56s.56-.84.56-1.35l-.03-12.93-.08.02h0ZM132.62,61.93c-2.6,2.37-4.85,2.93-6.33,2.97l6.81-12.5c1.24,2.79,2.35,6.95-.48,9.54h0ZM72.21,91c-.3.05-.59.07-.88.07-3.29,0-5.57-3.14-6.87-5.64l14.01,2.48c-.98,1.17-2.83,2.55-6.26,3.09ZM81.78,119.83c3.63-3.56,10.54-15.29,8.19-24.04-2.81-10.39-9.98-18.35-17.34-20.79-3.84-1.27-6.06-1.55-7.34-1.21-.6.16-2.3-1.62-3.84-3.45-.46-1.9-.86-3.53-.97-4.01.02-3.72,0-3.96-.75-4.59-.44-.37-.98-.52-1.53-.42-1.39.18-17.39.53-21.47-.24-3.28-.62-5.75-3.3-6.97-4.9-.29-.74-.3-3.03-.08-4.41,1.62.95,4.44,3.19,5.59,4.29,1.04.99,2.13,1.34,12.67-2.8,5.24-2.06,10.3-4.26,11-4.6,1.44-.69,1.76-2.43,2.41-5.9.45-2.43,1.39-7.5,2.76-8.22,3.25-1.7,14.65-7.08,16.55-7.97.1-.04.23-.1.39-.18.08-.04.15-.07.2-.1,2.21-1.1,9.23-4.57,12.31-5.91,1.43-.62,5.97,1.81,8.16,2.97,3.11,1.66,4.67,2.49,6.11,1.8.82-.4,5.83-3.06,10.45-5.72,9.82-5.65,10.22-6.73,10.09-8.16-.14-1.59-.13-5.18.14-7.04,1.22.7,3,2.13,3.39,2.82.5,1.93,1.06,5.53-.51,8.49-1.99,3.74-12.61,16.28-13.31,17.01-.37.38-.56.9-.53,1.42.03.6,1.1,1.79,3.2,3.57l.32.27c.39.48,1.05,1.3,1.81,2.25.42,2.63.81,5.59.65,5.71-1.08.78-2.25,2.69-3.67,6.52-2.69,7.26-.95,17.84,5.42,26.52,5.69,7.74,19.73,8.8,23.79,7.71.46,3.69.92,7.44,1.37,11.07.02.19.05.38.07.56h0c1.46,11.78,2.77,22.32,3.24,26.07l-8.38,4.03c-.65-4.8-2.65-19.65-2.67-21.53-.03-2.23-6.72-5.47-8.28-6.43-1.46-.91-12.7,2.85-12.95,2.96-.26.1-8.42,3.92-9.85,4.63-.11.05-1.47.92-1.63,1.03-.73.5-1.65,1.12-2.63,1.82-.31.21-.63.44-.94.67-.16.11-.32.23-.49.36-.16.11-.33.24-.5.35-1.76,1.32-3.4,2.68-4.06,3.57-.07.08-.11.16-.16.24-.09.15-.14.29-.15.39-.22,1.84-1.87,9.08-.14,10.5,1.45,1.19,11.83,11.99,15.2,15.5l-8.42,4.05c-3.42-3.51-14.9-15.28-25.9-26.55l-.02.02h0ZM137.15,114.01l-1.31.61c-1.1.53-2.43.07-2.96-1.03l-1.3-2.73c-.53-1.1-.07-2.43,1.03-2.95l1.31-.63c1.1-.52,2.43-.06,2.96,1.05l1.3,2.72c.53,1.1.07,2.43-1.03,2.96ZM110.92,125.57l-1.28.62c-.64.3-1.4.04-1.7-.59l-1.31-2.72c-.15-.3-.16-.65-.05-.97.11-.31.34-.56.65-.71l1.3-.63c.17-.08.35-.12.54-.12.14,0,.29.02.43.07.32.11.57.34.72.65l1.31,2.71c.3.63.03,1.39-.6,1.69,0,0-.01,0-.01,0ZM182.86,209.13c-4.59-2.23-44.48-36.12-72.1-60l23.4-11.25c.06-.03.12-.06.17-.09l22.3-10.71c.74-.35,1.17-1.14,1.07-1.95-.03-.26-1.25-10.01-2.76-22.21.34.29.7.59,1.08.91,1.28,1.08,3.17,2.67,3.72,3.27,1.23,4.65,7.6,58.21,8.05,62.35.38,3.39,15.05,27.91,15.98,28.99.58.67,1.5,1.73,14.21,1.73,1.41,0,2.96,0,4.68-.04l.02,9.08c-4.7,0-16.67,0-19.8-.08h-.02Z"/>
</svg>
